<?xml version="1.0" encoding="UTF-8"?>
<svg width="185px" height="47px" viewBox="0 0 185 47" version="1.1" xmlns="http://www.w3.org/2000/svg" xmlns:xlink="http://www.w3.org/1999/xlink">
    <!-- Generator: Sketch 49 (51002) - http://www.bohemiancoding.com/sketch -->
    <title>hogia_logo_cmyk[3]</title>
    <desc>Created with Sketch.</desc>
    <defs>
        <polygon id="path-1" points="33.83425 0.110221239 0 0.110221239 0 46.9750442 67.6685 46.9750442 67.6685 0.110221239"></polygon>
    </defs>
    <g id="Symbols" stroke="none" stroke-width="1" fill="none" fill-rule="evenodd">
        <g id="Header---vit-2" transform="translate(-96.000000, -30.000000)">
            <g id="Header">
                <g id="hogia_logo_cmyk[3]" transform="translate(96.000000, 30.000000)">
                    <g id="Group-4">
                        <mask id="mask-2" fill="white">
                            <use xlink:href="#path-1"></use>
                        </mask>
                        <g id="Clip-2"></g>
                        <path d="M67.6685,23.5769469 C59.5214524,7.94674336 44.1372619,0.110221239 44.1372619,0.110221239 L8.99178571,0.110221239 C8.99178571,0.110221239 -10.6804524,21.7506018 8.16971429,47 L45.3944524,47 C45.3944524,47 60.7782381,38.1386283 67.5385714,23.9329823 L67.6685,23.5769469" id="Fill-1" fill="#093566" mask="url(#mask-2)"></path>
                        <path d="M9.90371429,2.95975221 L43.6608571,2.95975221 C43.6608571,2.95975221 58.4820238,11.4201681 64.7647381,23.5769469 C64.7647381,23.5769469 55.2321905,39.2071504 44.0943571,44.3725752 L9.68635714,44.3725752 C9.68635714,44.3725752 -6.04390476,26.337885 9.68635714,3.18227434 L9.90371429,2.95975221" id="Fill-3" fill="#FFDA1A" mask="url(#mask-2)"></path>
                    </g>
                    <g id="Group-13" transform="translate(10.000000, 5.000000)" fill="#093566">
                        <path d="M0.376466423,1.26357895 L13.2349582,1.26357895 L13.2349582,12.5781053 L22.1524813,12.5781053 L22.1520769,1.26484211 L34.9228208,1.26484211 L34.9240339,35.4778947 C34.9240339,35.4778947 22.1524813,35.5696842 22.1524813,35.4778947 C22.1524813,35.4345263 22.1524813,22.9456842 22.1524813,22.9456842 L13.2349582,22.9456842 L13.2349582,35.4778947 L0.376466423,35.4778947 L0.376466423,1.26357895" id="Fill-5"></path>
                        <path d="M64.1630609,4.44 L75.0672431,4.44 L75.0672431,14.0825263 L82.6297297,14.0825263 L82.6297297,4.49894737 L93.4752785,4.49894737 L93.4752785,33.2425263 C93.4752785,33.2425263 82.6297297,33.3035789 82.6297297,33.2425263 C82.6297297,33.1810526 82.6297297,22.8728421 82.6297297,22.8728421 L75.0672431,22.8728421 L75.0672431,33.2425263 L64.1630609,33.2425263 L64.1630609,4.44" id="Fill-7"></path>
                        <path d="M106.178089,18.3730526 C104.391996,18.4509474 103.377033,20.2117895 103.358028,21.8749474 C103.34064,23.5376842 103.734898,25.6311579 106.252088,25.6901053 C108.770491,25.7486316 109.334988,23.8117895 109.408583,21.8749474 C109.4842,19.9376842 108.225807,18.3730526 106.252088,18.3730526 L106.102876,18.3730526 M94.0858739,21.9722105 C94.0858739,15.6155789 99.3256719,10.384 106.252088,10.384 C113.179717,10.384 118.569131,15.6155789 118.569131,21.9722105 C118.569131,28.3296842 113.179717,33.5608421 106.252088,33.5608421 C99.3256719,33.5608421 94.0858739,28.3296842 94.0858739,21.9722105" id="Fill-8"></path>
                        <path d="M128.011524,21.1511579 C128.011524,22.5983158 128.763648,24.2425263 130.867169,24.2042105 C132.971904,24.1637895 132.933489,23.1465263 132.971904,20.8383158 C133.009105,18.5296842 132.521438,18.1381053 130.942382,17.9810526 C129.364538,17.8252632 128.011524,18.96 128.011524,20.9949474 L128.011524,21.1511579 M132.40781,11.4863158 L133.459571,10.6252632 L142.179358,10.6252632 L142.179358,31.2854737 C142.179358,31.2854737 141.802892,39.112 132.40781,39.6597895 C131.056009,39.7393684 129.829157,39.9587368 128.726446,39.8884211 C127.597855,39.8164211 126.658509,39.7288421 125.790331,39.6155789 C121.450252,39.048 119.780617,37.8593684 119.780617,37.8593684 L121.960564,32.3810526 C121.960564,32.3810526 125.831173,33.7511579 127.485441,33.7115789 C129.138497,33.6728421 132.745862,33.2821053 132.70866,31.7945263 C132.70866,31.7945263 132.633852,31.0117895 131.580474,31.4037895 C130.528713,31.7945263 121.960564,34.1035789 119.10411,23.9284211 C119.10411,23.9284211 116.850972,11.9557895 127.748685,10.3511579 C127.748685,10.3511579 130.679543,10.3511579 132.40781,11.4863158" id="Fill-9"></path>
                        <polygon id="Fill-10" points="143.832414 10.7818947 153.2279 10.7818947 153.2279 33.2425263 143.832414 33.2425263"></polygon>
                        <path d="M148.567157,9.56 C150.914512,9.56 153.119125,7.32252632 153.119125,4.75536842 C153.119125,2.18778947 150.914512,0.106526316 148.567157,0.106526316 C146.219801,0.106526316 144.165613,2.18778947 144.165613,4.75536842 C144.165613,7.32252632 146.219801,9.56 148.567157,9.56" id="Fill-11"></path>
                        <path d="M164.802119,27.7246316 C166.230347,27.4909474 165.778263,24.8298947 165.778263,24.8298947 C165.778263,23.5772632 164.952544,23.6943158 164.952544,23.6943158 C164.952544,23.6943158 162.838509,24.1052632 162.752783,25.7877895 C162.752783,25.7877895 162.565157,27.9894737 164.868436,27.7157895 L164.802119,27.7246316 M174.233998,16.6901053 C174.873708,18.2951579 174.985718,33.2425263 174.985718,33.2425263 L166.980853,33.2425263 L165.590637,32.264 C164.125208,33.3595789 160.780682,33.5157895 160.780682,33.5157895 C156.195555,33.5157895 154.5425,29.5246316 154.5425,29.5246316 C151.197974,19.3115789 164.614088,19.2336842 164.614088,19.2336842 C165.816274,19.0766316 165.064554,18.0989474 165.064554,18.0989474 C162.847406,15.7115789 154.768541,19.5856842 154.768541,19.5856842 C154.768541,19.5856842 155.331421,13.5208421 156.045939,12.3856842 C156.759648,11.2509474 171.527969,7.24968421 174.272413,16.7978947" id="Fill-12"></path>
                    </g>
                </g>
            </g>
        </g>
    </g>
</svg>