<?xml version="1.0" encoding="utf-8"?>
<!-- Generator: Adobe Illustrator 22.0.1, SVG Export Plug-In . SVG Version: 6.00 Build 0)  -->
<svg version="1.1" id="Lager_1" xmlns="http://www.w3.org/2000/svg" xmlns:xlink="http://www.w3.org/1999/xlink" x="0px" y="0px"
	 viewBox="0 0 200 200" style="enable-background:new 0 0 200 200;" xml:space="preserve">
<style type="text/css">
	.st0{display:none;}
	.st1{display:inline;fill:#9D9D9C;}
	.st2{display:inline;fill:#FFFFFF;}
	.st3{display:inline;fill:#FFFFFF;stroke:#E3E3E2;stroke-width:4;stroke-miterlimit:10;}
	.st4{fill:none;}
	.st5{enable-background:new    ;}
	.st6{fill:#FFFFFF;}
</style>
<g id="Layer_5" class="st0">
	<rect x="-74.8" y="-91.5" class="st1" width="330.5" height="330.5"/>
</g>
<g id="Layer_1" class="st0">
	<path class="st2" d="M83,78c2.6,12.9-0.6,24.3-8,34s-29.2,9.2-41,21S0,200,0,200h199c0,0-17.3-60.3-32-70s-41.5-10.2-47-16
		s-7.8-21-6-36S80.4,65.1,83,78z"/>
	<path class="st3" d="M100.5,14c19.6,0,35.5,20.8,35.5,46.5S120.1,107,100.5,107S65,86.2,65,60.5S80.9,14,100.5,14z"/>
</g>
<g id="Layer_2">
	<rect x="-9" y="43.2" class="st4" width="200" height="144.3"/>
	<g class="st5">
		<path class="st6" d="M144.9,50.1l-15.4,92.6c-0.2,1.1-0.9,2.1-1.9,2.7c-0.5,0.3-1.2,0.5-1.9,0.5c-0.5,0-1-0.1-1.4-0.3L97,134.5
			l-14.6,17.8c-0.7,0.9-1.8,1.4-3,1.4c-0.4,0-0.9-0.1-1.3-0.2c-1.5-0.5-2.5-2-2.5-3.6v-21l52.1-63.8l-64.4,55.8l-23.8-9.8
			c-1.4-0.5-2.3-1.8-2.4-3.3c-0.1-1.4,0.7-2.8,1.9-3.6l100.3-57.9c0.6-0.4,1.3-0.5,1.9-0.5c0.8,0,1.6,0.2,2.2,0.7
			C144.6,47.2,145.2,48.6,144.9,50.1z"/>
	</g>
</g>
<g id="Layer_3" class="st0">
	
		<image style="display:inline;overflow:visible;enable-background:new    ;" width="150" height="150" xlink:href="2E474111.jpeg"  transform="matrix(1.3333 0 0 1.3333 0 1.682073e-05)">
	</image>
</g>
<g id="Layer_4" class="st0">
	<path class="st2" d="M4.7,209.1c0,0,3.5-25.3,11.2-36.5s26.7-12.6,34-15.8s19.6-9.5,22.8-15.1s3.9-18,3.2-19.7S65.1,92,59.2,81.5
		s-2.2-8.9-0.7-21.2S71.1,32.6,78.8,28s13.7-7,21.2-7s16.7,3.2,21.6,7.7s12.6,13.7,14.4,20.4s7.4,12.6,3.2,35.8s-13,31.6-17.5,37.5
		c-0.4,8.1-1.8,13.7,1.1,16.5s10.2,11.9,21.1,16.5s11.9,3.2,23.5,6s19.6,11.9,21.4,16.1s8.1,29.1,8.1,29.1L4.7,209.1z"/>
	<path class="st2" d="M260.9,191.9"/>
	<path class="st2" d="M99.9,42c6.4,0,11.9,2.5,15.1,4.3c6.6,3.7,9.1,6.9,12.8,13.4c4.1,7.2,7.2,21.2,4.8,33.1
		c-3.8,19.1-13.6,32.6-14.2,34s0,11.8,2.7,16.6s13,10,19.2,12.7s22.2,3.8,28.7,13.3c6.5,9.4,9.5,30.7,9.5,30.7H21.4
		c0,0,2.9-21.2,9.4-30.7c6.5-9.4,22.4-10.6,28.6-13.3c6.2-2.7,16.5-8,19.2-12.7c2.7-4.7,3.3-15.1,2.7-16.6s-10.3-15-14.1-34
		c-2.4-11.9,0.7-25.9,4.8-33.1c3.7-6.5,6.3-9.7,12.8-13.4C88,44.5,93.6,42,99.9,42"/>
</g>
</svg>
