<?xml version="1.0" encoding="utf-8"?>
<!-- Generator: Adobe Illustrator 24.0.1, SVG Export Plug-In . SVG Version: 6.00 Build 0)  -->
<svg version="1.1" id="Layer_1" xmlns="http://www.w3.org/2000/svg" xmlns:xlink="http://www.w3.org/1999/xlink" x="0px" y="0px"
	 viewBox="0 0 484 484" style="enable-background:new 0 0 484 484;" xml:space="preserve">
<style type="text/css">
	.st0{fill:#1D1D18;}
</style>
<title>light_person</title>
<path class="st0" d="M242,484C108.3,484,0,375.7,0,242c0-64.2,25.5-125.8,70.9-171.2c94.5-94.5,247.7-94.5,342.3,0
	s94.5,247.7,0,342.3l0,0C367.8,458.7,306.2,484.2,242,484z M178,332c-38.6,0-70,31.4-70,70v16.6l2.4,1.8c78.1,58.1,185,58.1,263.1,0
	l2.4-1.8V402c0-38.6-31.4-70-70-70c-4.9,0-10,1.6-16.4,3.6c-10.5,3.3-25,7.8-47.6,7.8s-37.1-4.5-47.7-7.8
	C187.9,333.6,182.9,332,178,332z M306,312c21.7,0,42.6,7.9,58.9,22.2c16.1,14.2,26.7,33.6,29.8,54.8l1.8,12.4l8.5-9.2
	c37.9-40.8,58.9-94.5,59-150.2c0-122.4-99.6-222-222-222S20,119.6,20,242c0.1,55.7,21.1,109.3,59,150.2l8.5,9.2l1.8-12.4
	c3.1-21.2,13.7-40.6,29.8-54.8c16.3-14.3,37.2-22.2,58.9-22.2c8.1,0,14.6,2,22,4.4c10.4,3.3,22.2,7,42,7s31.6-3.7,42.1-7
	C291.5,314,297.9,312,306,312z M242,276c-45.3,0-82-36.7-82-82s36.7-82,82-82s82,36.7,82,82l0,0C323.9,239.3,287.3,275.9,242,276z
	 M242,132c-34.2,0-62,27.8-62,62s27.8,62,62,62s62-27.8,62-62C304,159.8,276.2,132,242,132z"/>
</svg>
