<svg id="Lager_1" data-name="Lager 1" xmlns="http://www.w3.org/2000/svg" viewBox="0 0 879 879"><defs><style>.cls-1{fill:#f5f5f5;}.cls-2{fill:#f7a600;}</style></defs><title>CONTRACT ICON</title><circle class="cls-1" cx="439.5" cy="439.5" r="439.5"/><path class="cls-2" d="M445.31,176.91c.57-2.89,1-5.81,1.73-8.67a58.51,58.51,0,0,1,57.28-44.55q101,0,202.09,0,25.11,0,50.22,0c28.45,0,52,18.9,58,46.67a53.16,53.16,0,0,1,1.21,10.95q.13,53.35,0,106.7a19.49,19.49,0,0,1-36.6,9.46,21.59,21.59,0,0,1-2.39-10.65q.06-51.42,0-102.84a28.36,28.36,0,0,0-.91-7.35,19.07,19.07,0,0,0-17-13.77c-1-.07-2.08-.09-3.12-.09q-125.33,0-250.64-.07c-11.46,0-18.46,7.36-20.17,14.49a25.26,25.26,0,0,0-.72,5.93q-.06,165,0,329.94c0,11.49,7.88,19.69,19.34,20.28.72,0,1.44,0,2.17,0q124.83,0,249.67,0c4.5,0,8.78-.67,12.58-3.25a19.28,19.28,0,0,0,8.85-16.67c.06-12.33,0-24.67,0-37A19.34,19.34,0,0,1,793.66,457c11.07-1.75,21.93,6.87,22.13,18.06.26,14,.46,28.05,0,42.05-1,28.49-24.76,52.81-53.06,55a15.47,15.47,0,0,0-2.09.42h-260a13.18,13.18,0,0,0-1.84-.41,58.36,58.36,0,0,1-51.05-42c-1-3.59-1.6-7.3-2.38-11Z" transform="translate(-205 96)"/><path class="cls-2" d="M874.49,258.3l41.85,41.91a13.26,13.26,0,0,0-2,1.41Q848.2,367.76,782,433.88a11,11,0,0,1-4.39,2.64c-16,5-31.94,9.82-47.91,14.7-.67.2-1.36.35-2.36.61.77-4.45,1.48-8.68,2.22-12.91,2.34-13.39,4.65-26.79,7.09-40.16a8.21,8.21,0,0,1,2.06-4.1Q805.79,327.39,873,260.21A17.79,17.79,0,0,0,874.49,258.3Z" transform="translate(-205 96)"/><path class="cls-2" d="M614.44,428.34c2.23-2.42,4.06-4.52,6-6.5,6.33-6.45,12.47-13.12,19.17-19.15a23.27,23.27,0,0,1,10.15-5c6.92-1.58,13,1.87,16.59,8.63a38.12,38.12,0,0,1,4.24,20.42q0,.94-.06,1.89c0,.07.08.13.26.38,1.47-.63,3-1.3,4.52-1.93,5.22-2.17,10.7-.14,13,4.79a9.49,9.49,0,0,1-4.88,12.89c-6.14,2.68-12.41,5.12-18.77,7.19a14.64,14.64,0,0,1-7.55,0c-5.74-1.36-9.16-7-8.26-13.14.49-3.4,1.54-6.73,1.9-10.13a92.24,92.24,0,0,0,.07-9.41l-.63-.2c-1.14,1.08-2.35,2.1-3.41,3.25-6.16,6.63-12.2,13.37-18.46,19.9a74.47,74.47,0,0,1-9.27,8.3,13.92,13.92,0,0,1-11.78,2.77c-5.17-1.2-8.66-4.45-9.9-9.43a116.57,116.57,0,0,1-2.47-15.59c-.84-7.88-1.35-15.79-2-23.68-.07-.78-.27-1.55-.56-3.11-1.65,1.84-2.93,3.22-4.17,4.63-9.88,11.21-18.11,23.62-26,36.24-3.57,5.69-6.89,11.54-10.35,17.3-2.72,4.52-7.58,6.42-12.11,4.8a9.59,9.59,0,0,1-5-14.39c7.4-12.25,14.85-24.49,22.63-36.5a123.71,123.71,0,0,1,20-24.22,53.37,53.37,0,0,1,10.38-7.65c8.64-4.69,18-1.37,21.47,7.83,1.85,4.95,2.67,10.36,3.36,15.64.86,6.58,1.1,13.23,1.62,19.86C614.17,426,614.29,426.9,614.44,428.34Z" transform="translate(-205 96)"/><path class="cls-2" d="M523.4,299.14v-19.2H737.74v19.2Z" transform="translate(-205 96)"/><path class="cls-2" d="M523.41,260.05V240.92H737.76v19.13Z" transform="translate(-205 96)"/><path class="cls-2" d="M698.68,318.85v19.3H523.44v-19.3Z" transform="translate(-205 96)"/></svg>