<svg xmlns="http://www.w3.org/2000/svg" width="52.56" height="52.56" viewBox="0 0 52.56 52.56"><g transform="translate(-16 -15.96)"><path d="M42.29,68.52A26.28,26.28,0,1,1,68.56,42.24,26.313,26.313,0,0,1,42.29,68.52Zm0-49.56A23.28,23.28,0,1,0,65.56,42.24,23.311,23.311,0,0,0,42.29,18.96Z" fill="#1d1d18"/><path d="M55.94,29.36,52.18,53.85a3.034,3.034,0,0,1-3,2.57,3.154,3.154,0,0,1-1.16-.23l-7.08-2.92-2.77,3.74a3.04,3.04,0,0,1-5.48-1.81V49.86l-7.23-2.99a3.031,3.031,0,0,1-.36-5.43L51.42,26.26A3.041,3.041,0,0,1,55.94,29.36Zm-3.45-.47L26.18,44.07,33,46.89,46.38,35.23a1.014,1.014,0,0,1,1.5,1.34L39,49.37l9.73,4.02ZM38.01,52.07l-2.32-.95v4.09Z" fill="#1d1d18"/></g></svg>